<svg width="31" height="33" viewBox="0 0 31 33" fill="none" xmlns="http://www.w3.org/2000/svg">
<path d="M30.1061 13.7964L16.5307 1.30707C16.0894 0.901049 15.5082 0.681318 14.9087 0.693803C14.3091 0.706287 13.7376 0.950022 13.3136 1.37406L0.828233 13.8595L0.1875 14.5002V32.9063H12.2188V21.4219H18.7812V32.9063H30.8125V14.4464L30.1061 13.7964ZM14.9557 2.88084C14.975 2.88084 14.9631 2.88501 14.9548 2.89314C14.9463 2.88501 14.9364 2.88084 14.9557 2.88084ZM28.625 30.7188H20.9688V21.4219C20.9688 20.8417 20.7383 20.2853 20.328 19.8751C19.9178 19.4649 19.3614 19.2344 18.7812 19.2344H12.2188C11.6386 19.2344 11.0822 19.4649 10.672 19.8751C10.2617 20.2853 10.0312 20.8417 10.0312 21.4219V30.7188H2.375V15.4063L14.9557 2.92083C14.9566 2.92001 14.9567 2.91926 14.9574 2.91844L28.625 15.4063V30.7188Z" fill="#7D7373"/>
</svg>
