<svg width="38" height="38" viewBox="0 0 38 38" fill="none" xmlns="http://www.w3.org/2000/svg">
<g clip-path="url(#clip0_1_188)">
<path d="M19 38C8.46094 38 0 29.4215 0 19C0 8.46094 8.46094 0 19 0C29.5391 0 38 8.46094 38 19C38 29.4215 29.5391 38 19 38ZM19 3.192C10.298 3.192 3.18488 10.298 3.18488 19.0012C3.18488 27.7044 10.298 34.8163 19 34.8163C27.702 34.8163 34.8151 27.7032 34.8151 19.0012C34.8151 10.2992 27.702 3.192 19 3.192ZM28.3207 20.8371H14.5896C14.2987 20.8386 14.019 20.725 13.8116 20.5209C13.6042 20.3169 13.486 20.039 13.4829 19.7481V18.1462C13.4829 17.5275 13.9709 17.0394 14.5896 17.0394H28.4371C29.0498 17.0394 29.5379 17.5346 29.5379 18.1462V19.7363C29.4203 20.349 28.9251 20.8371 28.3195 20.8371H28.3207ZM24.7641 14.7072H10.9096C10.6184 14.7094 10.3383 14.596 10.1308 14.3918C9.9233 14.1876 9.80532 13.9094 9.80281 13.6183V12.0163C9.80281 11.5211 10.298 11.0331 10.9096 11.0331H24.757C25.2522 11.0331 25.7403 11.5283 25.7403 12.0163V13.6064C25.7403 14.2191 25.2534 14.7072 24.7641 14.7072ZM10.9107 23.2928H24.7653C25.3781 23.2928 25.8661 23.7809 25.8661 24.3936V25.9837C25.8674 26.2755 25.7528 26.556 25.5476 26.7635C25.3423 26.971 25.0631 27.0886 24.7713 27.0904H10.9107C10.298 26.9669 9.80994 26.4777 9.80994 25.8661V24.2701C9.804 23.7821 10.298 23.2928 10.9107 23.2928Z" fill="#7D7373"/>
</g>
<defs>
<clipPath id="clip0_1_188">
<rect width="38" height="38" fill="white"/>
</clipPath>
</defs>
</svg>
