<svg width="35" height="35" viewBox="0 0 35 35" fill="none" xmlns="http://www.w3.org/2000/svg">
<path d="M17.325 10.4563C17.325 10.2638 17.1763 10.1063 16.9969 10.1063H8.90313C8.72375 10.1063 8.575 10.2638 8.575 10.4563V12.5562C8.575 12.7488 8.72375 12.9062 8.90313 12.9062H16.9969C17.1763 12.9062 17.325 12.7488 17.325 12.5562V10.4563ZM25.8519 10.1894L17.4519 17.2331C17.2856 17.3731 17.2856 17.6313 17.4519 17.7713L25.8519 24.8106C25.9026 24.8537 25.9646 24.8814 26.0306 24.8903C26.0965 24.8993 26.1637 24.8891 26.224 24.861C26.2844 24.8329 26.3354 24.788 26.371 24.7318C26.4066 24.6756 26.4254 24.6103 26.425 24.5437V21.8006C26.425 21.6956 26.3813 21.5994 26.2981 21.5338L21.4944 17.5L26.2981 13.4662C26.3372 13.4335 26.3688 13.3927 26.3907 13.3467C26.4126 13.3006 26.4243 13.2504 26.425 13.1994V10.4563C26.425 10.1588 26.0794 9.99688 25.8519 10.1894ZM1.4 35H33.6C34.3744 35 35 34.3744 35 33.6V1.4C35 0.625626 34.3744 0 33.6 0H1.4C0.625626 0 0 0.625626 0 1.4V33.6C0 34.3744 0.625626 35 1.4 35ZM3.15 3.15H31.85V31.85H3.15V3.15Z" fill="#7D7373"/>
</svg>
