<svg width="38" height="38" viewBox="0 0 38 38" fill="none" xmlns="http://www.w3.org/2000/svg">
<path d="M31.6666 9.49996C32.585 9.49996 33.3291 9.81663 33.915 10.4341C34.5166 11.0833 34.8333 11.7958 34.8333 12.6666V30.0833C34.8333 30.9541 34.5166 31.6666 33.915 32.3158C33.3291 32.9333 32.585 33.25 31.6666 33.25H6.33329C5.41496 33.25 4.67079 32.9333 4.08496 32.3158C3.48329 31.6666 3.16663 30.9541 3.16663 30.0833V12.6666C3.16663 11.7958 3.48329 11.0833 4.08496 10.4341C4.67079 9.81663 5.41496 9.49996 6.33329 9.49996H12.6666V6.33329C12.6666 5.41496 12.9833 4.67079 13.585 4.08496C14.1708 3.48329 14.915 3.16663 15.8333 3.16663H22.1666C23.085 3.16663 23.8291 3.48329 24.415 4.08496C25.0166 4.67079 25.3333 5.41496 25.3333 6.33329V9.49996H31.6666ZM6.33329 12.6666V30.0833H31.6666V12.6666H6.33329ZM22.1666 9.49996V6.33329H15.8333V9.49996H22.1666Z" fill="#7D7373"/>
</svg>
