<svg width="38" height="38" viewBox="0 0 38 38" fill="none" xmlns="http://www.w3.org/2000/svg">
<g clip-path="url(#clip0_1_181)">
<path fill-rule="evenodd" clip-rule="evenodd" d="M22.5625 34.4375L8.3125 28.5V9.50001L22.5625 3.56251V34.4375ZM6.21063 31.483C5.77801 31.3025 5.40847 30.9981 5.14855 30.608C4.88863 30.2179 4.74996 29.7596 4.75 29.2909V8.70914C4.74996 8.24039 4.88863 7.78211 5.14855 7.39202C5.40847 7.00193 5.77801 6.69748 6.21063 6.51701L21.1921 0.273139C21.7336 0.0474983 22.3224 -0.0409511 22.9062 0.0156448C23.4901 0.0722406 24.0509 0.27213 24.5389 0.597565C25.027 0.922999 25.4271 1.36391 25.7038 1.88114C25.9805 2.39837 26.1252 2.97593 26.125 3.56251V4.75001H29.0938C31.388 4.75001 33.25 6.60964 33.25 8.90626V29.0938C33.25 30.1961 32.8121 31.2532 32.0327 32.0327C31.2532 32.8121 30.1961 33.25 29.0938 33.25H26.125V34.4375C26.1252 35.0241 25.9805 35.6017 25.7038 36.1189C25.4271 36.6361 25.027 37.077 24.5389 37.4025C24.0509 37.7279 23.4901 37.9278 22.9062 37.9844C22.3224 38.041 21.7336 37.9525 21.1921 37.7269L6.21063 31.483ZM26.125 29.6875H29.0938C29.2512 29.6875 29.4022 29.625 29.5136 29.5136C29.6249 29.4023 29.6875 29.2512 29.6875 29.0938V8.90626C29.6875 8.74879 29.6249 8.59777 29.5136 8.48642C29.4022 8.37507 29.2512 8.31251 29.0938 8.31251H26.125V29.6875Z" fill="#7D7373"/>
</g>
<defs>
<clipPath id="clip0_1_181">
<rect width="38" height="38" fill="white"/>
</clipPath>
</defs>
</svg>
